<?xml version="1.0" encoding="UTF-8" standalone="no"?>
<!-- Created with Inkscape (http://www.inkscape.org/) -->

<svg
   xmlns:dc="http://purl.org/dc/elements/1.1/"
   xmlns:cc="http://creativecommons.org/ns#"
   xmlns:rdf="http://www.w3.org/1999/02/22-rdf-syntax-ns#"
   xmlns:svg="http://www.w3.org/2000/svg"
   xmlns="http://www.w3.org/2000/svg"
   xmlns:sodipodi="http://sodipodi.sourceforge.net/DTD/sodipodi-0.dtd"
   xmlns:inkscape="http://www.inkscape.org/namespaces/inkscape"
   width="744.09448819"
   height="1052.3622047"
   id="svg2"
   version="1.1"
   inkscape:version="0.48.5 r10040"
   sodipodi:docname="tgl6502_case_front.svg">
  <defs
     id="defs4" />
  <sodipodi:namedview
     id="base"
     pagecolor="#ffffff"
     bordercolor="#666666"
     borderopacity="1.0"
     inkscape:pageopacity="0.0"
     inkscape:pageshadow="2"
     inkscape:zoom="1.5117419"
     inkscape:cx="361.50196"
     inkscape:cy="728.79122"
     inkscape:document-units="mm"
     inkscape:current-layer="layer1"
     showgrid="false"
     inkscape:window-width="1600"
     inkscape:window-height="838"
     inkscape:window-x="-8"
     inkscape:window-y="-8"
     inkscape:window-maximized="1" />
  <metadata
     id="metadata7">
    <rdf:RDF>
      <cc:Work
         rdf:about="">
        <dc:format>image/svg+xml</dc:format>
        <dc:type
           rdf:resource="http://purl.org/dc/dcmitype/StillImage" />
        <dc:title></dc:title>
      </cc:Work>
    </rdf:RDF>
  </metadata>
  <g
     inkscape:label="Layer 1"
     inkscape:groupmode="layer"
     id="layer1">
    <g
       id="g3820">
      <path
         inkscape:connector-curvature="0"
         id="rect2985"
         d="m 100.00711,211.39265 0,212.58087 496.04544,0 0,-212.58087 -496.04544,0 z"
         style="fill:none;stroke:#ff0000;stroke-width:5.33267736;stroke-linecap:butt;stroke-linejoin:miter;stroke-miterlimit:4;stroke-opacity:1;stroke-dasharray:none" />
      <rect
         y="347.11972"
         x="136.12418"
         height="38.679028"
         width="98.915245"
         id="rect3756"
         style="fill:none;stroke:#ff0000;stroke-width:4.90365076;stroke-miterlimit:4;stroke-opacity:1;stroke-dasharray:none" />
      <path
         transform="matrix(0.82360875,0,0,0.82360876,-24.614784,-167.42803)"
         d="m 349.17086,648.22925 a 11.315722,11.315722 0 1 1 -22.63145,0 11.315722,11.315722 0 1 1 22.63145,0 z"
         sodipodi:ry="11.315722"
         sodipodi:rx="11.315722"
         sodipodi:cy="648.22925"
         sodipodi:cx="337.85513"
         id="path3758"
         style="fill:none;stroke:#ff0000;stroke-width:5.33267736;stroke-miterlimit:4;stroke-opacity:1;stroke-dasharray:none"
         sodipodi:type="arc" />
      <path
         transform="matrix(0.88864692,0,0,0.88864691,322.89169,-361.85941)"
         d="m 266.72774,819.5816 a 24.247976,24.247976 0 1 1 -48.49595,0 24.247976,24.247976 0 1 1 48.49595,0 z"
         sodipodi:ry="24.247976"
         sodipodi:rx="24.247976"
         sodipodi:cy="819.5816"
         sodipodi:cx="242.47977"
         id="path3785"
         style="fill:none;stroke:#ff0000;stroke-width:5.33267736;stroke-miterlimit:4;stroke-opacity:1;stroke-dasharray:none"
         sodipodi:type="arc" />
      <g
         transform="translate(-36.016215,-319.91745)"
         id="g3816">
        <path
           sodipodi:type="arc"
           style="fill:none;stroke:#ff0000;stroke-width:5.33267736;stroke-miterlimit:4;stroke-opacity:1;stroke-dasharray:none"
           id="path3758-4"
           sodipodi:cx="337.85513"
           sodipodi:cy="648.22925"
           sodipodi:rx="11.315722"
           sodipodi:ry="11.315722"
           d="m 349.17086,648.22925 c 0,6.2495 -5.06623,11.31572 -11.31573,11.31572 -6.2495,0 -11.31572,-5.06622 -11.31572,-11.31572 0,-6.2495 5.06622,-11.31572 11.31572,-11.31572 6.2495,0 11.31573,5.06622 11.31573,11.31572 z"
           transform="matrix(0.82360875,0,0,0.82360876,188.90887,152.48942)" />
        <path
           sodipodi:type="arc"
           style="fill:none;stroke:#ff0000;stroke-width:5.33267736;stroke-miterlimit:4;stroke-opacity:1;stroke-dasharray:none"
           id="path3758-0"
           sodipodi:cx="337.85513"
           sodipodi:cy="648.22925"
           sodipodi:rx="11.315722"
           sodipodi:ry="11.315722"
           d="m 349.17086,648.22925 c 0,6.2495 -5.06623,11.31572 -11.31573,11.31572 -6.2495,0 -11.31572,-5.06622 -11.31572,-11.31572 0,-6.2495 5.06622,-11.31572 11.31572,-11.31572 6.2495,0 11.31573,5.06622 11.31573,11.31572 z"
           transform="matrix(0.82360875,0,0,0.82360876,236.91161,152.48942)" />
      </g>
    </g>
    <path
       style="fill:none;stroke:#000000;stroke-width:0.86286718px;stroke-linecap:butt;stroke-linejoin:miter;stroke-opacity:1"
       d="m 453.20527,710.1331 48.75546,0"
       id="path3814"
       inkscape:connector-curvature="0" />
  </g>
</svg>
