<?xml version="1.0" encoding="UTF-8" standalone="no"?>
<!-- Created with Inkscape (http://www.inkscape.org/) -->

<svg
   xmlns:dc="http://purl.org/dc/elements/1.1/"
   xmlns:cc="http://creativecommons.org/ns#"
   xmlns:rdf="http://www.w3.org/1999/02/22-rdf-syntax-ns#"
   xmlns:svg="http://www.w3.org/2000/svg"
   xmlns="http://www.w3.org/2000/svg"
   xmlns:sodipodi="http://sodipodi.sourceforge.net/DTD/sodipodi-0.dtd"
   xmlns:inkscape="http://www.inkscape.org/namespaces/inkscape"
   width="289.61362"
   height="284.4483"
   id="svg4353"
   version="1.1"
   inkscape:version="0.48.5 r10040"
   sodipodi:docname="tgl6502_case_side.svg">
  <defs
     id="defs4355" />
  <sodipodi:namedview
     id="base"
     pagecolor="#ffffff"
     bordercolor="#666666"
     borderopacity="1.0"
     inkscape:pageopacity="0.0"
     inkscape:pageshadow="2"
     inkscape:zoom="1.6769411"
     inkscape:cx="145.23438"
     inkscape:cy="127.76771"
     inkscape:document-units="mm"
     inkscape:current-layer="layer1"
     showgrid="false"
     showborder="false"
     inkscape:showpageshadow="false"
     inkscape:window-width="1600"
     inkscape:window-height="838"
     inkscape:window-x="-8"
     inkscape:window-y="-8"
     inkscape:window-maximized="1"
     fit-margin-top="0"
     fit-margin-left="0"
     fit-margin-right="0"
     fit-margin-bottom="0" />
  <metadata
     id="metadata4358">
    <rdf:RDF>
      <cc:Work
         rdf:about="">
        <dc:format>image/svg+xml</dc:format>
        <dc:type
           rdf:resource="http://purl.org/dc/dcmitype/StillImage" />
        <dc:title></dc:title>
      </cc:Work>
    </rdf:RDF>
  </metadata>
  <g
     inkscape:label="Layer 1"
     inkscape:groupmode="layer"
     id="layer1"
     transform="translate(-357.77679,-206.78586)">
    <path
       style="fill:none;stroke:#000000;stroke-width:5.4683218;stroke-linecap:round;stroke-linejoin:miter;stroke-miterlimit:4;stroke-opacity:1;stroke-dasharray:none"
       d="m 361.46875,300.78125 0,150.3125 0,26.09375 57.3125,0 0,11.3125 57.65625,0 0,-11.3125 57.4375,0 0,11.3125 53.40625,0 0,-11.3125 57.375,0 0,-26.09375 c 0,0 -163.02427,-2.46165 -215.9375,-44.9375 -31.79222,-25.52105 -31.8125,-105.375 -31.8125,-105.375 l -35.4375,0 z"
       id="rect4912"
       inkscape:connector-curvature="0" />
    <path
       inkscape:connector-curvature="0"
       style="fill:none;stroke:#000000;stroke-width:5.4683218;stroke-linecap:round;stroke-linejoin:miter;stroke-miterlimit:4;stroke-opacity:1;stroke-dasharray:none"
       d="m 643.69845,397.23877 0,-150.3125 0,-26.09375 -57.31251,0 0,-11.3125 -57.65624,0 0,11.3125 -57.4375,0 0,-11.3125 -53.40625,0 0,11.3125 -57.375,0 0,26.09375 c 0,0 163.02427,2.46165 215.93749,44.9375 31.79222,25.52105 31.8125,105.375 31.8125,105.375 l 35.43751,0 z"
       id="rect4912-2" />
  </g>
</svg>
