%FSLAX23Y23*%
%MOIN*%
G04 EasyPC Gerber Version 18.0.1 Build 3581 *
%ADD10R,0.05906X0.07874*%
%ADD13R,0.06890X0.06890*%
%ADD71O,0.10000X0.06890*%
%ADD18R,0.07874X0.05906*%
%ADD12R,0.06890X0.06890*%
%ADD14C,0.02244*%
%ADD70C,0.02362*%
%ADD19C,0.03150*%
X0Y0D02*
D02*
D10*
X131Y456D03*
Y681D03*
Y1006D03*
X206D03*
X281D03*
X431Y1306D03*
Y1706D03*
X506Y356D03*
Y906D03*
X956Y1531D03*
Y1831D03*
X1056Y1531D03*
Y1831D03*
X1156Y1531D03*
Y1831D03*
X1256Y1531D03*
Y1831D03*
X1406Y1681D03*
Y2231D03*
X1656Y656D03*
Y1781D03*
X2256Y756D03*
Y1581D03*
Y1881D03*
Y2231D03*
X2356Y856D03*
Y1681D03*
X2606Y656D03*
Y1781D03*
X3206Y756D03*
Y1581D03*
Y1881D03*
Y2231D03*
X3281Y856D03*
Y1681D03*
X3331Y1831D03*
Y2231D03*
X3481Y1256D03*
Y1681D03*
X3556Y956D03*
Y1581D03*
X3606Y1156D03*
Y1981D03*
X4156Y81D03*
Y1681D03*
X4206Y256D03*
Y1381D03*
X4531Y156D03*
Y1556D03*
D02*
D12*
X231Y1431D03*
Y1531D03*
Y1706D03*
Y1806D03*
X4431Y1056D03*
Y1156D03*
Y1256D03*
Y1356D03*
Y1456D03*
D02*
D13*
X124Y1981D03*
X224D03*
X324D03*
X424D03*
X524D03*
X624D03*
X1056Y2056D03*
X1156D03*
D02*
D14*
X124Y1981D02*
Y2124D01*
X156Y2156*
X1056*
X131Y456D02*
X4681D01*
X4756Y531*
Y856*
X131Y806D02*
Y681D01*
Y806D02*
Y1006D01*
Y1206D02*
Y1006D01*
Y1206D02*
Y1531D01*
X124*
Y1981*
X231Y1531D02*
X131D01*
X231Y1706D02*
X431D01*
X324Y1981D02*
Y1856D01*
X274Y1806*
X231*
X328Y556D02*
Y806D01*
Y1006*
X281*
X328Y1206D02*
X506D01*
X328D02*
Y1178D01*
X206Y1056*
Y1006*
X431Y1306D02*
Y1356D01*
X356Y1431*
X231*
X506Y356D02*
X2481D01*
X506Y906D02*
Y1206D01*
Y1681*
X481Y1706*
X431*
X956Y1531D02*
Y1306D01*
X1606Y656*
X1656*
X956Y1831D02*
Y1906D01*
X781Y2081*
X456*
X424Y2049*
Y1981*
X1056Y1531D02*
Y1581D01*
X1006Y1631*
X581*
Y1881*
X531Y1931*
X524*
Y1981*
X1056Y2056D02*
Y1831D01*
Y2156D02*
X1581D01*
X1056D02*
Y2056D01*
X1156Y1531D02*
Y1481D01*
X1881Y756*
X2256*
X1156Y2056D02*
Y1981D01*
X1256Y1881*
Y1831*
Y1531D02*
Y1481D01*
X1881Y856*
X2356*
X1256Y1831D02*
X1381D01*
X1481Y1731*
Y1356*
X1881Y956*
X3556*
X1406Y1681D02*
X1256D01*
X1156Y1781*
Y1831*
X1406Y2231D02*
X156D01*
X56Y2131*
Y631*
X131Y556*
X328*
X1581Y2156D02*
X2506D01*
Y1756*
X2681Y1581*
X2756*
X1581Y2156D02*
Y1731D01*
X1731Y1581*
X1806*
X1656Y656D02*
X2481D01*
X1656Y1781D02*
X1806D01*
Y1681D02*
X1956D01*
Y1781*
X2106*
X1806Y1881D02*
Y2056D01*
X2106Y1581D02*
X2256D01*
X2106Y1681D02*
X2356D01*
X2106Y1781D02*
X2381D01*
X2656Y1506*
X2806*
X2931Y1631*
Y1706*
X3006Y1781*
X3056*
X2106Y1881D02*
X2256D01*
Y756D02*
X2481D01*
X2256Y2231D02*
X1406D01*
X2256D02*
X3206D01*
X2356Y856D02*
X2481D01*
Y156D02*
X3431D01*
X2481Y256D02*
X2431D01*
X2406Y231*
Y106*
X2431Y81*
X4156*
X2481Y356D02*
X3431D01*
X2481Y556D02*
X3431D01*
X2481D02*
X328D01*
X2481Y656D02*
X2606D01*
X2481Y756D02*
X3206D01*
X2481Y856D02*
X3281D01*
X2606Y656D02*
X3431D01*
X2606Y1781D02*
X2756D01*
X2731Y2056D02*
X3331D01*
X3606Y1781*
X3731*
X3056Y1581D02*
X3206D01*
X3056Y1681D02*
X3281D01*
X3056Y1781D02*
X3306D01*
X3331Y1806*
Y1831*
X3056Y1881D02*
X3206D01*
Y756D02*
X3431D01*
X3206Y2231D02*
X3331D01*
X3281Y856D02*
X3431D01*
Y156D02*
X4531D01*
X3431Y256D02*
X4206D01*
X3431Y656D02*
X4656D01*
X3431Y756D02*
X4656D01*
X3431Y856D02*
X4656D01*
X3481Y1681D02*
X3731D01*
X3556Y1581D02*
X3731D01*
X3606Y1981D02*
X3731D01*
Y1381D02*
X3481D01*
X3406Y1306*
Y1206*
X3556Y1056*
X4431*
X3731Y1481D02*
X3531D01*
X3406Y1606*
Y1881*
X3306Y1981*
X2806*
X2756Y1931*
Y1881*
X3731Y1581D02*
X3881D01*
X3731Y1881D02*
X3781D01*
X3881Y1781*
Y1581D02*
X3981Y1481D01*
X4031*
X3881Y1781D02*
Y1581D01*
X4031Y1381D02*
X4206D01*
X4031Y1581D02*
X4231D01*
X4506Y1856*
X4656*
X4031Y1681D02*
X4156D01*
X4031Y1781D02*
X3881D01*
X4031Y1981D02*
Y2231D01*
X3331*
X4431Y1056D02*
X4656D01*
X4431Y1156D02*
X4656D01*
X4431Y1256D02*
X4656D01*
X4431Y1356D02*
X4656D01*
X4431Y1456D02*
X4656D01*
X4531Y1556D02*
X4656D01*
X4631Y531D02*
X4581D01*
X4556Y556*
X3431*
X4656Y956D02*
X3556D01*
X4656Y1156D02*
X4706D01*
X4756Y1206*
Y1981*
X4506Y2231*
X4031*
X4656Y1656D02*
X4506D01*
X4331Y1481*
Y1306*
X4181Y1156*
X3606*
X4656Y1756D02*
X4531D01*
X4281Y1506*
Y1331*
X4206Y1256*
X3481*
X4656Y1956D02*
X4206D01*
X4131Y1881*
X4031*
X4756Y856D02*
Y1031D01*
X4731Y1056*
X4656*
X4956Y756D02*
Y656D01*
Y856D02*
X4756D01*
X4956D02*
Y756D01*
Y1256D02*
X5156D01*
X4956Y1356D02*
X5156D01*
X4956Y1456D02*
X5156D01*
X4956Y1556D02*
X5156D01*
X4956Y1656D02*
X5156D01*
X4956Y1756D02*
X5156D01*
X4956Y1856D02*
X5156D01*
X4956Y1956D02*
X5156D01*
X5031Y531D02*
X5081D01*
Y881*
X5006Y956*
X4956*
D02*
D18*
X131Y806D03*
Y1206D03*
X328Y806D03*
Y1206D03*
X1806Y1581D03*
Y1681D03*
Y1781D03*
Y1881D03*
Y2056D03*
X2106Y1581D03*
Y1681D03*
Y1781D03*
Y1881D03*
X2481Y156D03*
Y256D03*
Y356D03*
Y456D03*
Y556D03*
Y656D03*
Y756D03*
Y856D03*
X2731Y2056D03*
X2756Y1581D03*
Y1681D03*
Y1781D03*
Y1881D03*
X3056Y1581D03*
Y1681D03*
Y1781D03*
Y1881D03*
X3431Y156D03*
Y256D03*
Y356D03*
Y456D03*
Y556D03*
Y656D03*
Y756D03*
Y856D03*
X3731Y1381D03*
Y1481D03*
Y1581D03*
Y1681D03*
Y1781D03*
Y1881D03*
Y1981D03*
X4031Y1381D03*
Y1481D03*
Y1581D03*
Y1681D03*
Y1781D03*
Y1881D03*
Y1981D03*
X4631Y531D03*
X5031D03*
X5156Y1256D03*
Y1356D03*
Y1456D03*
Y1556D03*
Y1656D03*
Y1756D03*
Y1856D03*
Y1956D03*
D02*
D19*
X3219Y1193D02*
Y1340D01*
X3281D02*
X3158D01*
X2998Y1254D02*
X2961D01*
Y1242*
X2973Y1217*
X2986Y1205*
X3010Y1193*
X3035*
X3059Y1205*
X3072Y1217*
X3084Y1242*
Y1291*
X3072Y1316*
X3059Y1328*
X3035Y1340*
X3010*
X2986Y1328*
X2973Y1316*
X2961Y1291*
X2887Y1340D02*
Y1193D01*
X2764*
X2690Y1242D02*
X2592D01*
X2494Y1230D02*
X2481Y1254D01*
X2457Y1267*
X2432*
X2407Y1254*
X2395Y1230*
X2407Y1205*
X2432Y1193*
X2457*
X2481Y1205*
X2494Y1230*
Y1267*
X2481Y1304*
X2457Y1328*
X2432Y1340*
X2297Y1205D02*
X2272Y1193D01*
X2235*
X2211Y1205*
X2198Y1230*
Y1242*
X2211Y1267*
X2235Y1279*
X2297*
Y1340*
X2198*
X2088Y1205D02*
X2063Y1193D01*
X2038*
X2014Y1205*
X2001Y1230*
Y1304*
X2014Y1328*
X2038Y1340*
X2063*
X2088Y1328*
X2100Y1304*
Y1230*
X2088Y1205*
X2014Y1328*
X1805Y1193D02*
X1903D01*
X1817Y1279*
X1805Y1304*
X1817Y1328*
X1841Y1340*
X1878*
X1903Y1328*
D02*
D70*
X2257Y85D02*
Y204D01*
X2306D02*
X2207D01*
X2148Y85D02*
Y204D01*
Y144D02*
X2050D01*
Y85D02*
Y204D01*
X1991Y85D02*
Y204D01*
X1893*
X1912Y144D02*
X1991D01*
Y85D02*
X1893D01*
X1607Y135D02*
X1578D01*
Y125*
X1587Y105*
X1597Y95*
X1617Y85*
X1637*
X1656Y95*
X1666Y105*
X1676Y125*
Y164*
X1666Y184*
X1656Y194*
X1637Y204*
X1617*
X1597Y194*
X1587Y184*
X1578Y164*
X1519Y85D02*
X1469Y204D01*
X1420Y85*
X1499Y135D02*
X1440D01*
X1361Y85D02*
Y204D01*
X1292*
X1272Y194*
X1263Y174*
X1272Y154*
X1292Y144*
X1361*
X1292D02*
X1263Y85D01*
X1204D02*
X1154Y204D01*
X1105Y85*
X1184Y135D02*
X1125D01*
X977D02*
X948D01*
Y125*
X957Y105*
X967Y95*
X987Y85*
X1007*
X1026Y95*
X1036Y105*
X1046Y125*
Y164*
X1036Y184*
X1026Y194*
X1007Y204*
X987*
X967Y194*
X957Y184*
X948Y164*
X889Y85D02*
Y204D01*
X790*
X810Y144D02*
X889D01*
Y85D02*
X790D01*
X574Y204D02*
Y85D01*
X475*
X416D02*
X367Y204D01*
X318Y85*
X396Y135D02*
X337D01*
X190Y144D02*
X170Y135D01*
X160Y115*
X170Y95*
X190Y85*
X259*
Y204*
X190*
X170Y194*
X160Y174*
X170Y154*
X190Y144*
X259*
D02*
D71*
X4656Y656D03*
Y756D03*
Y856D03*
Y956D03*
Y1056D03*
Y1156D03*
Y1256D03*
Y1356D03*
Y1456D03*
Y1556D03*
Y1656D03*
Y1756D03*
Y1856D03*
Y1956D03*
X4956Y656D03*
Y756D03*
Y856D03*
Y956D03*
Y1056D03*
Y1156D03*
Y1256D03*
Y1356D03*
Y1456D03*
Y1556D03*
Y1656D03*
Y1756D03*
Y1856D03*
Y1956D03*
X0Y0D02*
M02*
