%FSLAX23Y23*%
%MOIN*%
G04 EasyPC Gerber Version 18.0.1 Build 3581 *
%ADD10R,0.05906X0.07874*%
%ADD13R,0.06890X0.06890*%
%ADD11C,0.01181*%
%ADD18R,0.07874X0.05906*%
%ADD12R,0.06890X0.06890*%
%ADD29C,0.01969*%
%ADD14C,0.02244*%
%ADD28C,0.02953*%
X0Y0D02*
D02*
D10*
X217Y1178D03*
Y1374D03*
X567Y1103D03*
Y1299D03*
X692Y1728D03*
Y2228D03*
X767Y1628D03*
Y1928D03*
X867Y1528D03*
Y1928D03*
X1442Y1628D03*
Y2128D03*
X1542Y1127D03*
Y1928D03*
X1692Y828D03*
Y1228D03*
X2228Y1828D03*
Y2328D03*
X2467Y1728D03*
Y2228D03*
X3242Y1653D03*
Y2228D03*
D02*
D11*
X3503Y65D02*
Y117D01*
Y87D02*
X3498Y96D01*
X3490Y100*
X3481*
X3472Y96*
X3468Y87*
Y65*
X3425Y100D02*
X3408D01*
X3416Y108D02*
Y70D01*
X3412Y65*
X3408*
X3403Y70*
X3356Y100D02*
X3339D01*
X3347Y108D02*
Y70D01*
X3343Y65*
X3339*
X3335Y70*
X3296Y100D02*
Y53D01*
Y78D02*
X3292Y70D01*
X3283Y65*
X3274*
X3266Y70*
X3261Y78*
Y87*
X3266Y96*
X3274Y100*
X3283*
X3292Y96*
X3296Y87*
Y78*
X3205Y65D02*
X3201Y70D01*
X3205Y74*
X3210Y70*
X3205Y65*
Y87D02*
X3201Y91D01*
X3205Y96*
X3210Y91*
X3205Y87*
X3158Y65D02*
X3115Y117D01*
X3089Y65D02*
X3046Y117D01*
X3012Y100D02*
X2994D01*
X3003Y108D02*
Y70D01*
X2999Y65*
X2994*
X2990Y70*
X2951Y65D02*
Y117D01*
Y87D02*
X2947Y96D01*
X2938Y100*
X2930*
X2921Y96*
X2917Y87*
Y65*
X2848Y70D02*
X2852Y65D01*
X2861*
X2870*
X2878Y70*
X2882Y78*
Y91*
X2878Y96*
X2870Y100*
X2861*
X2852Y96*
X2848Y91*
Y87*
X2852Y83*
X2861Y78*
X2870*
X2878Y83*
X2882Y87*
X2779D02*
X2783Y96D01*
X2792Y100*
X2801*
X2809Y96*
X2814Y87*
Y83*
X2809Y74*
X2801Y70*
X2792*
X2783Y74*
X2779Y83*
Y100D02*
Y65D01*
X2783Y57*
X2792Y53*
X2805*
X2814Y57*
X2745Y96D02*
X2736Y100D01*
X2723*
X2714Y96*
X2710Y87*
Y74*
X2714Y70*
X2723Y65*
X2732*
X2740Y70*
X2745Y74*
Y78*
X2740Y83*
X2732Y87*
X2723*
X2714Y83*
X2710Y78*
Y74D02*
Y65D01*
X2676D02*
Y100D01*
Y87D02*
X2671Y96D01*
X2663Y100*
X2654*
X2646Y96*
X2607D02*
X2598Y100D01*
X2585*
X2577Y96*
X2572Y87*
Y74*
X2577Y70*
X2585Y65*
X2594*
X2603Y70*
X2607Y74*
Y78*
X2603Y83*
X2594Y87*
X2585*
X2577Y83*
X2572Y78*
Y74D02*
Y65D01*
X2503Y87D02*
X2508Y96D01*
X2516Y100*
X2525*
X2534Y96*
X2538Y87*
Y83*
X2534Y74*
X2525Y70*
X2516*
X2508Y74*
X2503Y83*
Y100D02*
Y65D01*
X2508Y57*
X2516Y53*
X2529*
X2538Y57*
X2435Y70D02*
X2439Y65D01*
X2448*
X2456*
X2465Y70*
X2469Y78*
Y91*
X2465Y96*
X2456Y100*
X2448*
X2439Y96*
X2435Y91*
Y87*
X2439Y83*
X2448Y78*
X2456*
X2465Y83*
X2469Y87*
X2379Y65D02*
X2383D01*
Y117*
X2331Y96D02*
X2323Y100D01*
X2310*
X2301Y96*
X2297Y87*
Y74*
X2301Y70*
X2310Y65*
X2318*
X2327Y70*
X2331Y74*
Y78*
X2327Y83*
X2318Y87*
X2310*
X2301Y83*
X2297Y78*
Y74D02*
Y65D01*
X2262Y78D02*
X2258Y70D01*
X2249Y65*
X2241*
X2232Y70*
X2228Y78*
Y87*
X2232Y96*
X2241Y100*
X2249*
X2258Y96*
X2262Y87*
Y65D02*
Y117D01*
X2189Y65D02*
X2185Y70D01*
X2189Y74*
X2193Y70*
X2189Y65*
X2090Y96D02*
X2099Y100D01*
X2112*
X2120Y96*
X2125Y87*
Y78*
X2120Y70*
X2112Y65*
X2099*
X2090Y70*
X2056Y78D02*
X2051Y70D01*
X2043Y65*
X2034*
X2026Y70*
X2021Y78*
Y87*
X2026Y96*
X2034Y100*
X2043*
X2051Y96*
X2056Y87*
Y78*
X1987Y65D02*
Y100D01*
Y96D02*
X1982Y100D01*
X1974*
X1970Y96*
Y83*
Y96D02*
X1965Y100D01*
X1957*
X1952Y96*
Y65*
X1918D02*
X1875Y117D01*
D02*
D12*
X92Y1953D03*
Y2053D03*
X2342Y1428D03*
Y1528D03*
Y1628D03*
Y1728D03*
Y1828D03*
X3467Y1528D03*
Y1628D03*
Y1728D03*
Y1828D03*
Y1928D03*
Y2028D03*
Y2128D03*
Y2228D03*
Y2328D03*
D02*
D13*
X92Y2228D03*
X192D03*
X367Y1503D03*
Y1828D03*
Y2228D03*
X467Y1503D03*
Y1828D03*
Y2228D03*
X567D03*
D02*
D14*
X92Y1178D02*
X217D01*
X92Y1653D02*
Y1178D01*
Y1653D02*
Y1953D01*
Y2053D02*
Y2228D01*
X192D02*
X367D01*
X217Y1178D02*
X367D01*
X217Y1374D02*
Y2228D01*
X192*
X217Y1374D02*
X367D01*
Y1252D02*
Y1353D01*
Y1374*
X553*
X567Y1359*
Y1299*
X367Y1503D02*
Y1353D01*
Y1828D02*
Y1503D01*
Y1828D02*
Y1928D01*
X767*
X367Y2228D02*
Y2267D01*
X428Y2328*
X2228*
X367Y2228D02*
Y1928D01*
X467Y1828D02*
X992D01*
X492Y1653D02*
Y1592D01*
X477Y1578*
X467*
Y1503*
X567Y1103D02*
X692D01*
X567D02*
X367D01*
X567Y2228D02*
Y2188D01*
X627Y2128*
X1442*
X692Y203D02*
Y328D01*
X992*
X692Y877D02*
Y328D01*
Y1103D02*
Y877D01*
Y1728D02*
X992D01*
X692D02*
Y1103D01*
Y2228D02*
X2467D01*
X767Y1628D02*
Y1353D01*
Y1628D02*
X992D01*
X867Y1528D02*
X992D01*
X867Y1928D02*
Y1988D01*
X803Y2053*
X603*
X467Y2188*
Y2228*
X992Y527D02*
X953D01*
X903Y578*
Y678*
X1077Y853*
Y1053*
X1053Y1077*
X992*
Y627D02*
X1028D01*
X1127Y728*
Y1077*
X1028Y1178*
X992*
Y877D02*
X692D01*
X992Y1077D02*
X953D01*
X903Y1127*
Y1317*
X938Y1353*
X942*
X1092Y1503*
Y1678*
X1242Y1828*
X1292*
X992Y1178D02*
Y1217D01*
X1142Y1367*
Y1628*
X1242Y1728*
X1292*
X992Y1828D02*
Y1867D01*
X1053Y1928*
X1542*
X1092Y203D02*
X1403D01*
X1492Y292*
Y388*
X1353Y527*
X1292*
X1092Y203D02*
Y388D01*
X1053Y428*
X992*
X1192Y978D02*
Y477D01*
X1242Y428*
X1292*
Y328D02*
X1417D01*
X1292Y877D02*
X1353D01*
X1392Y838*
Y753*
X1292Y978D02*
X1192D01*
X1292Y1178D02*
X1328D01*
X1467Y1038*
Y928*
X1292Y1353D02*
Y1178D01*
Y1528D02*
X1842D01*
X1292D02*
X1242D01*
X1192Y1478*
Y978*
X1292Y1628D02*
X1442D01*
X1292Y1728D02*
X1542D01*
X1642Y1628*
X1842*
X1292Y1828D02*
X1617D01*
X1717Y1728*
X1842*
X1467Y928D02*
Y703D01*
X1392Y627*
X1292*
X1542Y1127D02*
X1842D01*
X1692Y828D02*
Y417D01*
X1403Y128*
X1042*
X992Y178*
Y328*
X1692Y1228D02*
X1842D01*
X1753Y328D02*
X1978Y553D01*
X2867*
X3092Y778*
Y1252*
X3017Y1328*
X2942*
X1792Y753D02*
X1842D01*
X1967Y627*
X2853*
X3042Y817*
Y978*
X2992Y1028*
X2942*
X1842Y928D02*
X1892D01*
X2117Y703*
X2828*
X2942Y817*
Y928*
X1842D02*
X1467D01*
X1842Y1328D02*
Y1228D01*
Y1428D02*
Y1328D01*
Y1728D02*
Y1767D01*
X2203Y2128*
X3467*
X2142Y1228D02*
X2378D01*
X2878Y1728*
X3467*
X2142Y1328D02*
X2378D01*
X2878Y1828*
X3467*
X2142Y1428D02*
X2342D01*
X2142Y1528D02*
X2342D01*
X2142Y1628D02*
X2342D01*
X2142Y1728D02*
X2342D01*
X2228Y1828D02*
X2342D01*
X2228Y2328D02*
X3467D01*
X2342Y1728D02*
X2467D01*
Y2228D02*
X3242D01*
X2792Y803D02*
X2153D01*
X1967Y988*
Y1063*
X1903Y1127*
X1842*
X2942D02*
X2853D01*
X2653Y928*
X2142*
X2942Y1428D02*
X3042D01*
X3142Y1328*
X2942Y1428D02*
X2878D01*
X2842Y1392*
Y1278*
X2892Y1228*
X2942*
Y1528D02*
X2892D01*
X2392Y1028*
X2142*
X3142Y1328D02*
Y853D01*
X3192Y803*
X3242*
Y1328D02*
X3142D01*
X3242Y1428D02*
X3142D01*
Y1653*
X2917*
X2392Y1127*
X2142*
X3242Y1653D02*
Y1528D01*
Y2228D02*
X3467D01*
Y1528D02*
Y892D01*
X3053Y477*
X2103*
X1678Y53*
X703*
X567Y188*
Y663*
X92Y1138*
Y1178*
X3467Y1628D02*
X3428D01*
X3367Y1567*
Y1303*
X3292Y1228*
X3242*
X3467Y1928D02*
X2203D01*
X2053Y1778*
Y1678*
X1903Y1528*
X1842*
X3467Y2028D02*
X2203D01*
X1978Y1803*
Y1703*
X1903Y1628*
X1842*
D02*
D18*
X92Y1653D03*
X367Y1103D03*
Y1178D03*
Y1252D03*
X492Y1653D03*
X692Y203D03*
X767Y1353D03*
X992Y328D03*
Y428D03*
Y527D03*
Y627D03*
Y877D03*
Y978D03*
Y1077D03*
Y1178D03*
Y1528D03*
Y1628D03*
Y1728D03*
Y1828D03*
X1092Y203D03*
X1292Y328D03*
Y428D03*
Y527D03*
Y627D03*
Y877D03*
Y978D03*
Y1077D03*
Y1178D03*
Y1353D03*
Y1528D03*
Y1628D03*
Y1728D03*
Y1828D03*
X1392Y753D03*
X1417Y328D03*
X1753D03*
X1792Y753D03*
X1842Y928D03*
Y1028D03*
Y1127D03*
Y1228D03*
Y1328D03*
Y1428D03*
Y1528D03*
Y1628D03*
Y1728D03*
X2142Y928D03*
Y1028D03*
Y1127D03*
Y1228D03*
Y1328D03*
Y1428D03*
Y1528D03*
Y1628D03*
Y1728D03*
X2792Y803D03*
X2942Y928D03*
Y1028D03*
Y1127D03*
Y1228D03*
Y1328D03*
Y1428D03*
Y1528D03*
X3242Y803D03*
Y928D03*
Y1028D03*
Y1127D03*
Y1228D03*
Y1328D03*
Y1428D03*
Y1528D03*
D02*
D28*
X3441Y164D02*
Y312D01*
X3503D02*
X3379D01*
X3220Y226D02*
X3183D01*
Y214*
X3195Y189*
X3207Y177*
X3232Y164*
X3256*
X3281Y177*
X3293Y189*
X3306Y214*
Y263*
X3293Y287*
X3281Y300*
X3256Y312*
X3232*
X3207Y300*
X3195Y287*
X3183Y263*
X3109Y312D02*
Y164D01*
X2986*
X2912Y214D02*
X2814D01*
X2715Y201D02*
X2703Y226D01*
X2678Y238*
X2654*
X2629Y226*
X2617Y201*
X2629Y177*
X2654Y164*
X2678*
X2703Y177*
X2715Y201*
Y238*
X2703Y275*
X2678Y300*
X2654Y312*
X2518Y177D02*
X2494Y164D01*
X2457*
X2432Y177*
X2420Y201*
Y214*
X2432Y238*
X2457Y251*
X2518*
Y312*
X2420*
X2309Y177D02*
X2284Y164D01*
X2260*
X2235Y177*
X2223Y201*
Y275*
X2235Y300*
X2260Y312*
X2284*
X2309Y300*
X2321Y275*
Y201*
X2309Y177*
X2235Y300*
X2026Y164D02*
X2125D01*
X2038Y251*
X2026Y275*
X2038Y300*
X2063Y312*
X2100*
X2125Y300*
D02*
D29*
X111Y128D02*
X244D01*
Y205*
X233Y227*
X210Y238*
X188Y227*
X177Y205*
Y128*
Y205D02*
X111Y238D01*
X122Y393D02*
X111Y382D01*
Y360*
Y338*
X122Y316*
X144Y305*
X177*
X188Y316*
X199Y338*
Y360*
X188Y382*
X177Y393*
X166*
X155Y382*
X144Y360*
Y338*
X155Y316*
X166Y305*
X199Y482D02*
X111Y526D01*
X199Y570*
X177Y737D02*
X166Y759D01*
X144Y770*
X122Y759*
X111Y737*
Y659*
X244*
Y737*
X233Y759*
X210Y770*
X188Y759*
X177Y737*
Y659*
X0Y0D02*
M02*
