M48
INCH
T1C00.039
%
T001
X00092Y01653
X00092Y01953
X00092Y02053
X00092Y02228
X00192Y02228
X00217Y01178
X00217Y01374
X00367Y01103
X00367Y01178
X00367Y01253
X00367Y01503
X00367Y01828
X00367Y02228
X00467Y01503
X00467Y01828
X00467Y02228
X00492Y01653
X00567Y01103
X00567Y01299
X00567Y02228
X00692Y00203
X00692Y01728
X00692Y02228
X00767Y01353
X00767Y01628
X00767Y01928
X00867Y01528
X00867Y01928
X00992Y00328
X00992Y00428
X00992Y00528
X00992Y00628
X00992Y00878
X00992Y00978
X00992Y01078
X00992Y01178
X00992Y01528
X00992Y01628
X00992Y01728
X00992Y01828
X01092Y00203
X01292Y00328
X01292Y00428
X01292Y00528
X01292Y00628
X01292Y00878
X01292Y00978
X01292Y01078
X01292Y01178
X01292Y01353
X01292Y01528
X01292Y01628
X01292Y01728
X01292Y01828
X01392Y00753
X01417Y00328
X01442Y01628
X01442Y02128
X01542Y01128
X01542Y01928
X01692Y00828
X01692Y01228
X01753Y00328
X01792Y00753
X01842Y00928
X01842Y01028
X01842Y01128
X01842Y01228
X01842Y01328
X01842Y01428
X01842Y01528
X01842Y01628
X01842Y01728
X02142Y00928
X02142Y01028
X02142Y01128
X02142Y01228
X02142Y01328
X02142Y01428
X02142Y01528
X02142Y01628
X02142Y01728
X02228Y01828
X02228Y02328
X02342Y01428
X02342Y01528
X02342Y01628
X02342Y01728
X02342Y01828
X02467Y01728
X02467Y02228
X02792Y00803
X02942Y00928
X02942Y01028
X02942Y01128
X02942Y01228
X02942Y01328
X02942Y01428
X02942Y01528
X03242Y00803
X03242Y00928
X03242Y01028
X03242Y01128
X03242Y01228
X03242Y01328
X03242Y01428
X03242Y01528
X03242Y01653
X03242Y02228
X03467Y01528
X03467Y01628
X03467Y01728
X03467Y01828
X03467Y01928
X03467Y02027
X03467Y02128
X03467Y02228
X03467Y02328
M30
